<svg xmlns="http://www.w3.org/2000/svg" xmlns:xlink="http://www.w3.org/1999/xlink" version="1.0" x="0px" y="0px" viewBox="0 0 100 125" enable-background="new 0 0 100 100" xml:space="preserve"><g display="none"><circle display="inline" fill="#000000" stroke="#00FFFF" stroke-width="0.1" stroke-miterlimit="10" cx="49.875" cy="50" r="45"/><circle display="inline" fill="#000000" stroke="#00FFFF" stroke-width="0.1" stroke-miterlimit="10" cx="49.875" cy="50" r="25"/></g><g><polygon points="73.564,26.396 50,16.563 26.473,26.396 26.68,53.719 29.542,60.118 29.329,68.971 44.67,90.188 41.132,56.059    33.868,52.385 33.058,45.729 44.401,51.563 42.947,62.563 50,68.563 57.091,62.563 55.675,51.563 67.018,45.729 66.208,52.385    58.943,56.059 55.404,90.188 70.748,68.971 70.523,60.118 73.377,53.719  "/><path d="M50,13.938l19.938,8.264C66.43,14.874,58.947,9.813,50.281,9.813c-8.652,0-16.125,5.045-19.64,12.354L50,13.938z"/></g><text x="0" y="115" fill="#000000" font-size="5px" font-weight="bold" font-family="'Helvetica Neue', Helvetica, Arial-Unicode, Arial, Sans-serif">Created by Monjin Friends</text><text x="0" y="120" fill="#000000" font-size="5px" font-weight="bold" font-family="'Helvetica Neue', Helvetica, Arial-Unicode, Arial, Sans-serif">from the Noun Project</text></svg>